# xmcd
#
# Track frame offsets: 
#        150
#        18149
#        32890
#        48884
#        65768
#        83121
#        100443
#        120438
#        139212
#        151785
#        167433
#
# Disc length: 2357 seconds
#
# Revision: 0
# Processed by: cddbd v1.4PL0 Copyright (c) Steve Scherf et al.
# Submitted via: ExactAudioCopy v0.90b4
#
DISCID=8309330b
DTITLE=Teddy Wilson - Cole Porter Classics
DYEAR=2001
DGENRE=Blues
TTITLE0=Get Out Of Town
TTITLE1=Just One Of Those Things
TTITLE2=I Get A Kick Out Of You
TTITLE3=I Love You
TTITLE4=It's All Right With Me
TTITLE5=Why Shouldn't I
TTITLE6=Love For Sale
TTITLE7=Too Darn Blue
TTITLE8=I've Got You Under My Skin
TTITLE9=Easy To Love
TTITLE10=What Is This Thing Called Love?
EXTD=Teddy Wilson (Piano]\nRecorded: Porcupine Studios, Eltham Nov. 3,
EXTD=1977\nProduced by Alan Bates\nRecording Engineer: Ted Taylor\nPh
EXTD=otography: Dave Ellis\nDesign: Ric Simenson\n\nThis CD has been r
EXTD=emastered from the original recording tape. All background noises
EXTD=, such as pops, clicks or other noises have been removed as much 
EXTD=as possible without compomising the original recording quality.
EXTT0=Cole Porter (Chappell)
EXTT1=Cole Porter (Chappell)
EXTT2=Cole Porter (Chappell)
EXTT3=Cole Porter (Chappell)
EXTT4=Cole Porter (Chappell)
EXTT5=Cole Porter (Chappell)
EXTT6=Cole Porter (Chappell)
EXTT7=Wilson (Phonoco/Black Lion)
EXTT8=Cole Porter (Chappell)
EXTT9=Cole Porter (Chappell)
EXTT10=Cole Porter (Chappell)
PLAYORDER=
